<?xml version="1.0" encoding="iso-8859-1"?>
<!-- Generator: Adobe Illustrator 19.0.0, SVG Export Plug-In . SVG Version: 6.00 Build 0)  -->
<svg version="1.1" id="Layer_1" xmlns="http://www.w3.org/2000/svg" xmlns:xlink="http://www.w3.org/1999/xlink" x="0px" y="0px"
	 viewBox="0 0 512 512" style="enable-background:new 0 0 512 512;" xml:space="preserve">
<path style="fill:#AC3C33;" d="M290.517,92.62l-11.506,43.721l46.022-9.204C325.034,108.075,309.581,92.62,290.517,92.62z"/>
<path style="fill:#C1BDAB;" d="M486.112,276.05c0-9.154-3.637-17.934-10.11-24.407l-58.924-44.113l-25.552-59.62
	c-5.439-12.692-17.919-20.921-31.727-20.921h-69.283l-57.528,111.752l57.528,138.067h178.337c9.531,0,17.258-7.727,17.258-17.258
	V276.05z"/>
<path style="fill:#D5D2BD;" d="M372.979,290.123c2.949,2.135,6.497,3.284,10.139,3.28l10.95-0.01
	c23.974,0,45.611,10.171,60.837,26.42c5.005,5.342,13.949,1.845,13.949-5.474v-38.29c0-4.266-1.537-8.296-4.35-11.456
	l-61.468-46.018l-27.372-63.868c-2.72-6.347-8.959-10.461-15.864-10.461h-47.132c-6.401,0-11.571,5.225-11.506,11.625l0.739,71.272
	c0.076,7.295,3.606,14.121,9.514,18.4L372.979,290.123z"/>
<path style="fill:#92BCBC;" d="M381.098,211.198l-18.308-42.718c-1.813-4.231-5.973-6.974-10.575-6.974h-15.676
	c-6.355,0-11.506,5.151-11.506,11.506v19.707l45.489,34.517C378.782,227.236,384.352,218.79,381.098,211.198z"/>
<path style="fill:#ACCCC7;" d="M325.034,180.222v35.509c0,6.355,5.151,11.506,11.506,11.506h33.983
	c4.727,0,8.562-2.771,10.378-6.559L325.034,180.222z"/>
<path style="fill:#DBD9C7;" d="M290.517,86.292c0-4.766-3.864-8.629-8.629-8.629H34.517c-4.766,0-8.629,3.864-8.629,8.629v55.106
	l92.045,154.871l172.584,36.756V86.292z"/>
<path style="fill:#E7E4CD;" d="M25.888,141.398v218.152c0,9.531,7.727,17.258,17.258,17.258h247.371v-43.784L25.888,141.398z"/>
<path style="fill:#C1BDAB;" d="M140.944,293.393c-45.996,0-83.416,37.42-83.416,83.416H224.36
	C224.36,330.813,186.94,293.393,140.944,293.393z"/>
<polygon style="fill:#AB5034;" points="290.517,284.764 290.517,215.73 128.537,215.73 140.944,261.753 223.869,284.764 "/>
<polygon style="fill:#BD7155;" points="25.888,284.764 223.869,284.764 128.537,215.73 25.888,215.73 "/>
<path style="fill:#AB5034;" d="M181.213,129.438h-5.753v-5.753c0-6.355-5.151-11.506-11.506-11.506h-11.506
	c-6.355,0-11.506,5.151-11.506,11.506v5.753h-5.753c-6.355,0-11.506,5.151-11.506,11.506v11.506c0,6.355,5.151,11.506,11.506,11.506
	h5.753v5.753c0,6.355,5.151,11.506,11.506,11.506h11.506c6.355,0,11.506-5.151,11.506-11.506v-5.753h5.753
	c6.355,0,11.506-5.151,11.506-11.506v-11.506C192.719,134.589,187.568,129.438,181.213,129.438z"/>
<path style="fill:#7F8383;" d="M428.584,376.809h57.528c9.531,0,17.258-7.727,17.258-17.258l-40.27-5.753l-34.517,5.753V376.809z"/>
<path style="fill:#91928F;" d="M428.584,342.292v17.258h74.787v-5.753c0-6.355-5.151-11.506-11.506-11.506H428.584z"/>
<path style="fill:#7F8383;" d="M25.888,376.809h34.517v-17.258l-23.011-5.753l-28.764,5.753
	C8.629,369.082,16.356,376.809,25.888,376.809z"/>
<path style="fill:#A4A49E;" d="M43.146,342.292H25.888c-9.531,0-17.258,7.727-17.258,17.258h51.775
	C60.404,350.019,52.677,342.292,43.146,342.292z"/>
<path style="fill:#4E565A;" d="M394.067,434.337c-31.721,0-57.528-25.807-57.528-57.528s25.807-57.528,57.528-57.528
	s57.528,25.807,57.528,57.528S425.788,434.337,394.067,434.337z"/>
<circle style="fill:#989487;" cx="394.067" cy="376.809" r="23.011"/>
<circle style="fill:#ADA999;" cx="388.315" cy="372.207" r="11.506"/>
<path style="fill:#5F6568;" d="M394.067,319.281c-31.721,0-57.528,25.807-57.528,57.528c0,5.932,0.903,11.656,2.578,17.044
	c8.305-1.247,14.68-8.392,14.68-17.044c0-22.205,18.065-40.27,40.27-40.27c8.653,0,15.797-6.375,17.046-14.68
	C405.724,320.184,400,319.281,394.067,319.281z"/>
<path style="fill:#3E474C;" d="M449.017,359.765c-8.305,1.247-14.68,8.392-14.68,17.044c0,22.205-18.065,40.27-40.27,40.27
	c-8.653,0-15.797,6.375-17.046,14.68c5.388,1.675,11.113,2.578,17.046,2.578c31.721,0,57.528-25.807,57.528-57.528
	C451.596,370.877,450.692,365.153,449.017,359.765z"/>
<path style="fill:#4E565A;" d="M140.944,434.337c-31.721,0-57.528-25.807-57.528-57.528s25.807-57.528,57.528-57.528
	s57.528,25.807,57.528,57.528S172.665,434.337,140.944,434.337z"/>
<circle style="fill:#989487;" cx="140.944" cy="376.809" r="23.011"/>
<circle style="fill:#ADA999;" cx="135.191" cy="372.207" r="11.506"/>
<path style="fill:#5F6568;" d="M140.944,319.281c-31.721,0-57.528,25.807-57.528,57.528c0,5.932,0.903,11.656,2.578,17.044
	c8.305-1.247,14.68-8.391,14.68-17.044c0-22.205,18.065-40.27,40.27-40.27c8.653,0,15.797-6.375,17.046-14.68
	C152.6,320.184,146.876,319.281,140.944,319.281z"/>
<path style="fill:#3E474C;" d="M195.894,359.765c-8.305,1.247-14.68,8.392-14.68,17.044c0,22.205-18.065,40.27-40.27,40.27
	c-8.653,0-15.797,6.375-17.046,14.68c5.388,1.675,11.113,2.578,17.046,2.578c31.721,0,57.528-25.807,57.528-57.528
	C198.472,370.877,197.569,365.153,195.894,359.765z"/>
<path d="M342.867,227.236c0,4.766,3.862,8.629,8.629,8.629h36.474c2.901,0,5.607-1.458,7.205-3.879
	c1.597-2.422,1.87-5.484,0.727-8.149l-28.169-65.729c-1.36-3.172-4.48-5.229-7.932-5.229h-34.768c-4.767,0-8.629,3.864-8.629,8.629
	v154.47c0,4.766,3.862,8.629,8.629,8.629s8.629-3.864,8.629-8.629V170.136h20.448l20.773,48.471h-23.387
	C346.73,218.607,342.867,222.47,342.867,227.236z"/>
<path d="M140.944,189.843h34.517c4.766,0,8.629-3.864,8.629-8.629v-8.629h8.629c4.766,0,8.629-3.864,8.629-8.629v-34.517
	c0-4.766-3.864-8.629-8.629-8.629h-8.629v-8.629c0-4.766-3.864-8.629-8.629-8.629h-34.517c-4.766,0-8.629,3.864-8.629,8.629v8.629
	h-8.629c-4.766,0-8.629,3.864-8.629,8.629v34.517c0,4.766,3.864,8.629,8.629,8.629h8.629v8.629
	C132.315,185.979,136.178,189.843,140.944,189.843z M132.315,138.067h8.629c4.766,0,8.629-3.864,8.629-8.629v-8.629h17.258v8.629
	c0,4.766,3.864,8.629,8.629,8.629h8.629v17.258h-8.629c-4.766,0-8.629,3.864-8.629,8.629v8.629h-17.258v-8.629
	c0-4.766-3.864-8.629-8.629-8.629h-8.629V138.067z"/>
<path d="M503.371,333.663h-8.629V276.05c0-11.525-4.487-22.359-12.635-30.508c-0.291-0.29-0.602-0.56-0.931-0.807l-57.075-42.73
	l-24.642-57.496c-6.807-15.886-22.373-26.151-39.658-26.151h-26.827c-3.123-17.426-16.733-31.256-34.05-34.692
	c-1.27-8.27-8.414-14.633-17.038-14.633H34.517c-9.516,0-17.258,7.742-17.258,17.258v248.855C7.215,338.709,0,348.3,0,359.551
	c0,14.275,11.613,25.888,25.888,25.888h49.48c4.244,32.414,32.024,57.528,65.576,57.528c36.48,0,66.157-29.678,66.157-66.157
	s-29.678-66.157-66.157-66.157c-33.553,0-61.332,25.114-65.576,57.528H60.404H25.888c-4.759,0-8.629-3.871-8.629-8.629
	s3.87-8.629,8.629-8.629h17.258c4.759,0,8.629,3.871,8.629,8.629c0,4.766,3.864,8.629,8.629,8.629s8.629-3.864,8.629-8.629
	c0-14.275-11.613-25.888-25.888-25.888h-8.629v-40.27h83.416c4.766,0,8.629-3.864,8.629-8.629s-3.864-8.629-8.629-8.629H34.517
	V224.36h71.91c4.766,0,8.629-3.864,8.629-8.629s-3.864-8.629-8.629-8.629h-71.91V86.292h247.371v120.809h-83.416
	c-4.766,0-8.629,3.864-8.629,8.629s3.864,8.629,8.629,8.629h83.416v51.775h-71.91c-4.766,0-8.629,3.864-8.629,8.629
	s3.864,8.629,8.629,8.629h71.91v59.254c0,4.766,3.862,8.629,8.629,8.629s8.629-3.864,8.629-8.629V101.583
	c7.674,2.722,13.697,8.963,16.111,16.777h-1.729c-4.767,0-8.629,3.864-8.629,8.629s3.862,8.629,8.629,8.629h46.273
	c10.371,0,19.71,6.159,23.795,15.69l25.552,59.62c0.597,1.391,1.549,2.601,2.759,3.508l58.397,43.718
	c4.634,4.84,7.18,11.171,7.18,17.895v57.613h-8.66c-4.767,0-8.629,3.864-8.629,8.629s3.862,8.629,8.629,8.629h25.919v8.629
	c0,4.759-3.871,8.629-8.629,8.629h-26.469c-4.243-32.414-32.022-57.528-65.576-57.528s-61.332,25.114-65.576,57.528H226.085
	c-4.766,0-8.629,3.864-8.629,8.629s3.864,8.629,8.629,8.629h102.406c4.244,32.414,32.022,57.528,65.576,57.528
	s61.332-25.114,65.576-57.528h26.469c14.274,0,25.888-11.613,25.888-25.888v-17.258C512,337.527,508.138,333.663,503.371,333.663z
	 M140.944,327.91c26.963,0,48.899,21.935,48.899,48.899s-21.935,48.899-48.899,48.899c-26.52,0-48.161-21.226-48.866-47.578
	c0.067-0.431,0.112-0.87,0.112-1.321s-0.045-0.889-0.112-1.321C92.782,349.136,114.423,327.91,140.944,327.91z M394.067,425.708
	c-26.963,0-48.899-21.935-48.899-48.899s21.935-48.899,48.899-48.899s48.899,21.935,48.899,48.899S421.031,425.708,394.067,425.708z
	"/>
<path d="M140.944,408.449c17.447,0,31.64-14.193,31.64-31.64s-14.193-31.64-31.64-31.64s-31.64,14.193-31.64,31.64
	S123.497,408.449,140.944,408.449z M140.944,362.427c7.931,0,14.382,6.451,14.382,14.382s-6.451,14.382-14.382,14.382
	c-7.931,0-14.382-6.451-14.382-14.382S133.013,362.427,140.944,362.427z"/>
<path d="M394.067,345.169c-17.446,0-31.64,14.193-31.64,31.64s14.194,31.64,31.64,31.64c17.446,0,31.64-14.193,31.64-31.64
	S411.513,345.169,394.067,345.169z M394.067,391.191c-7.931,0-14.382-6.451-14.382-14.382s6.451-14.382,14.382-14.382
	c7.931,0,14.382,6.451,14.382,14.382S401.998,391.191,394.067,391.191z"/>
<g>
</g>
<g>
</g>
<g>
</g>
<g>
</g>
<g>
</g>
<g>
</g>
<g>
</g>
<g>
</g>
<g>
</g>
<g>
</g>
<g>
</g>
<g>
</g>
<g>
</g>
<g>
</g>
<g>
</g>
</svg>
