<?xml version="1.0" encoding="iso-8859-1"?>
<!-- Generator: Adobe Illustrator 19.0.0, SVG Export Plug-In . SVG Version: 6.00 Build 0)  -->
<svg version="1.1" id="Layer_1" xmlns="http://www.w3.org/2000/svg" xmlns:xlink="http://www.w3.org/1999/xlink" x="0px" y="0px"
	 viewBox="0 0 512 512" style="enable-background:new 0 0 512 512;" xml:space="preserve">
<circle style="fill:#F3E29A;" cx="256" cy="256" r="256"/>
<circle style="fill:#EBD37A;" cx="256" cy="256" r="200.348"/>
<g>
	<path style="fill:#AB5034;" d="M238.375,212.159c-32.951-7.952-57.505-37.671-57.505-73.029c0-29.634,17.519-56.585,44.629-68.645
		c2.994-1.332,4.902-4.326,4.902-7.603v-1.046c0-1.877-0.529-3.747-1.663-5.241c-2.292-3.016-6.154-4.055-9.514-2.845
		c-42.912,15.459-71.745,56.48-71.745,102.076c0,14.661,2.968,29.142,8.657,42.517c-14.428,1.761-28.453,6.43-41.15,13.761
		c-39.937,23.058-60.95,68.955-52.33,114.254c0.347,1.825,1.228,3.542,2.61,4.782c2.79,2.501,6.727,2.818,9.793,1.05l1.038-0.599
		c2.877-1.661,4.52-4.871,4.123-8.169c-3.6-29.927,10.929-58.999,37.002-74.053c30.26-17.47,67.745-11.42,91.168,12.43
		c4.44,4.521,11.364,5.486,16.853,2.318l0,0c3.785-2.186,6.325-6.024,6.84-10.365c0.397-3.355,0.926-7.061,1.49-8.884
		c1.306-4.216,4.96-7.306,8.588-9.741c3.425-2.298,5.49-6.138,5.49-10.262v-0.751C247.652,218.478,243.853,213.481,238.375,212.159z
		"/>
	<path style="fill:#AB5034;" d="M256,281.043c-3.994,0-7.767-0.937-11.116-2.601c-3.641-1.809-7.912-1.818-11.432,0.215
		l-1.289,0.745c-4.768,2.754-6.906,8.421-5.343,13.702c9.637,32.533-3.821,68.704-34.468,86.398
		c-25.662,14.817-57.764,13.119-81.763-4.328c-2.65-1.927-6.197-2.081-9.035-0.443l-0.908,0.524c-1.625,0.938-2.98,2.331-3.705,4.06
		c-1.466,3.492-0.436,7.355,2.293,9.661c34.844,29.433,84.784,33.892,124.272,11.095c12.698-7.33,23.753-17.142,32.492-28.757
		c8.74,11.615,19.795,21.426,32.492,28.757c16.873,9.741,35.58,14.52,54.201,14.519c25.452-0.002,50.738-8.932,70.904-26.32
		c1.406-1.213,2.455-2.83,2.841-4.647c0.778-3.671-0.917-7.248-3.988-9.019l-1.038-0.599c-2.893-1.67-6.501-1.454-9.175,0.548
		c-24.114,18.05-56.533,19.995-82.59,4.951c-30.647-17.694-44.104-53.865-34.468-86.398c1.564-5.279-0.574-10.948-5.343-13.702
		l-1.289-0.745c-3.521-2.032-7.792-2.023-11.432-0.215C263.767,280.106,259.994,281.043,256,281.043z"/>
	<path style="fill:#AB5034;" d="M397.014,212.105c-12.699-7.332-26.721-12.001-41.15-13.761c5.689-13.377,8.657-27.856,8.657-42.517
		c0-46.111-29.235-87.254-72.77-102.441c-1.753-0.612-3.68-0.711-5.445-0.138c-3.568,1.16-5.82,4.417-5.82,7.962v1.198
		c0,3.34,1.991,6.359,5.061,7.674c27.691,11.856,45.584,38.96,45.584,69.049c0,35.358-24.555,65.077-57.505,73.029
		c-5.478,1.322-9.277,6.32-9.277,11.955v0.751c0,4.125,2.065,7.964,5.49,10.262c3.629,2.435,7.284,5.525,8.588,9.741
		c0.564,1.823,1.093,5.53,1.49,8.884c0.514,4.341,3.054,8.179,6.84,10.365l0,0c5.488,3.169,12.412,2.203,16.853-2.318
		c23.424-23.85,60.908-29.901,91.168-12.43c25.665,14.818,40.244,43.467,37.133,72.973c-0.344,3.259,1.296,6.408,4.134,8.045
		l0.914,0.528c1.624,0.937,3.507,1.414,5.367,1.176c3.755-0.479,6.585-3.301,7.217-6.817
		C457.611,280.382,436.501,234.902,397.014,212.105z"/>
	<path style="fill:#AB5034;" d="M184.528,267.185c-0.331-2.12-1.645-3.972-3.564-4.934c-8.038-4.029-17.027-6.236-26.303-6.236
		h-0.045c-2.439,0.001-4.363,1.998-4.262,4.433c1.481,35.602,20.65,66.711,48.929,84.754c2.081,1.328,4.846,0.617,6.077-1.523
		c4.547-7.897,7.186-16.766,7.728-25.84c0.128-2.147-0.82-4.213-2.492-5.564C196.929,301.225,187.353,285.31,184.528,267.185z"/>
	<path style="fill:#AB5034;" d="M256,150.261c-17.638,0-34.282,4.342-48.918,12.013c-2.18,1.143-2.937,3.885-1.705,6.016
		c4.567,7.895,10.932,14.621,18.527,19.631c1.79,1.181,4.049,1.375,6.048,0.599c8.087-3.135,16.867-4.867,26.049-4.867
		c9.182,0,17.961,1.732,26.049,4.867c1.999,0.775,4.258,0.581,6.048-0.599c7.594-5.01,13.959-11.737,18.527-19.631
		c1.233-2.131,0.476-4.873-1.705-6.016C290.282,154.603,273.638,150.261,256,150.261z"/>
	<path style="fill:#AB5034;" d="M357.338,256.014c-9.276,0-18.264,2.207-26.302,6.236c-1.919,0.962-3.233,2.814-3.564,4.934
		c-2.825,18.126-12.4,34.04-26.07,45.09c-1.673,1.352-2.62,3.418-2.492,5.564c0.542,9.075,3.181,17.942,7.728,25.84
		c1.232,2.139,3.996,2.85,6.077,1.523c28.279-18.042,47.448-49.152,48.929-84.754c0.101-2.436-1.823-4.432-4.262-4.433
		L357.338,256.014z"/>
</g>
<path d="M401.188,204.875c-6.349-3.666-13.079-6.748-20.005-9.163c-4.356-1.518-9.112,0.782-10.631,5.134
	c-1.517,4.354,0.781,9.114,5.134,10.631c5.937,2.069,11.708,4.713,17.152,7.857c36.433,21.034,55.917,62.99,48.437,104.426
	c-0.041-0.018-0.09-0.042-0.145-0.073l-0.919-0.469c3.456-32.785-12.74-64.609-41.262-81.077
	c-11.603-6.699-24.804-10.531-38.176-11.08c-12.419-0.51-25.037,1.814-36.491,6.723c-10.069,4.314-19.029,10.427-26.631,18.167
	c-1.779,1.81-4.54,2.198-6.724,0.937c-1.503-0.867-2.521-2.406-2.723-4.115c-0.778-6.583-1.404-9.071-1.805-10.37
	c-2.175-7.029-7.84-11.474-11.912-14.205c-1.123-0.754-1.793-1.999-1.793-3.331v-0.751c0-1.822,1.214-3.437,2.888-3.841
	c10.978-2.649,21.171-7.45,30.295-14.267c9.978-7.456,18.304-17.214,24.08-28.219c6.227-11.866,9.52-25.234,9.52-38.657
	c0-33.435-19.879-63.55-50.643-76.724l0.05-1.174c0.033,0.008,0.073,0.019,0.117,0.035c40.178,14.017,67.172,52.017,67.172,94.56
	c0,13.577-2.689,26.782-7.992,39.25c-1.804,4.243,0.171,9.145,4.414,10.949c4.244,1.803,9.145-0.171,10.949-4.414
	c6.187-14.546,9.324-29.95,9.324-45.785c0-49.635-31.494-93.97-78.368-110.324c-3.538-1.233-7.364-1.301-10.774-0.195
	c-6.932,2.252-11.588,8.642-11.588,15.901v1.198c0,6.688,3.972,12.712,10.123,15.348c24.615,10.541,40.52,34.632,40.52,61.377
	c0,10.884-2.56,21.28-7.608,30.899c-4.625,8.813-11.295,16.629-19.29,22.604c-7.303,5.456-15.45,9.296-24.218,11.411
	C262.442,206.27,256,214.524,256,224.115c0-9.592-6.442-17.845-15.667-20.07c-8.767-2.116-16.916-5.956-24.218-11.412
	c-7.995-5.975-14.665-13.791-19.29-22.604c-5.048-9.619-7.608-20.015-7.608-30.898c0-26.345,15.574-50.295,39.676-61.017
	c5.987-2.664,9.855-8.643,9.855-15.231v-1.046c0-3.78-1.194-7.435-3.364-10.291c-4.457-5.866-12.089-8.135-18.991-5.649
	c-46.214,16.648-77.263,60.824-77.263,109.93c0,8.035,0.835,16.099,2.48,23.969c0.944,4.512,5.363,7.41,9.879,6.463
	c4.513-0.944,7.406-5.367,6.463-9.879c-1.411-6.75-2.127-13.665-2.127-20.553c0-42.07,26.595-79.922,66.216-94.165
	c0.006,0.048,0.01,0.107,0.01,0.175l0.053,1.023c-30.121,13.4-49.584,43.337-49.584,76.271c0,13.422,3.292,26.789,9.52,38.657
	c5.774,11.005,14.101,20.763,24.08,28.219c9.124,6.817,19.317,11.618,30.296,14.268c1.673,0.403,2.887,2.018,2.887,3.84v0.751
	c0,1.332-0.671,2.577-1.793,3.33c-4.072,2.731-9.736,7.176-11.912,14.205c-0.402,1.298-1.025,3.783-1.806,10.37
	c-0.203,1.71-1.22,3.248-2.724,4.116c-2.179,1.258-4.944,0.874-6.722-0.937c-7.602-7.741-16.561-13.853-26.631-18.168
	c-11.455-4.907-24.08-7.236-36.491-6.723c-13.372,0.55-26.573,4.381-38.176,11.08c-28.976,16.729-45.115,49.026-41.122,82.221
	l-1.044,0.541c-0.009-0.03-0.018-0.065-0.024-0.105c-7.956-41.807,11.455-84.189,48.303-105.464
	c11.758-6.79,24.539-11.063,37.987-12.704c4.577-0.558,7.834-4.722,7.276-9.297c-0.558-4.577-4.722-7.83-9.297-7.276
	c-15.689,1.914-30.599,6.9-44.314,14.818c-42.991,24.821-65.64,74.269-56.356,123.044c0.701,3.686,2.562,7.038,5.24,9.439
	c3.168,2.838,7.168,4.3,11.199,4.3c2.859,0,5.733-0.736,8.336-2.237l1.038-0.599c5.801-3.347,9.036-9.783,8.24-16.396
	c-3.2-26.606,9.709-52.444,32.887-65.826c9.409-5.432,19.674-8.412,30.513-8.858c9.945-0.412,20.053,1.455,29.231,5.387
	c8.06,3.454,15.224,8.339,21.295,14.52c7.111,7.24,18.205,8.762,26.977,3.701l-9.972,5.757c-3.684,2.127-5.179,6.683-3.473,10.579
	c4.734,10.804,6.492,22.756,5.087,34.563c-1.182,9.918-4.621,19.607-9.948,28.018c-5.807,9.169-13.521,16.572-22.929,22.004
	c-22.796,13.162-51.31,11.662-72.643-3.823c-5.327-3.868-12.454-4.241-18.156-0.948l-1.107,0.639
	c-4.704,2.716-7.799,7.566-8.281,12.975c-0.483,5.41,1.706,10.733,5.856,14.238c37.523,31.697,91.307,36.499,133.833,11.946
	c5.707-3.295,11.172-7.1,16.244-11.311c3.547-2.945,4.036-8.208,1.091-11.756c-2.945-3.547-8.209-4.035-11.756-1.091
	c-4.35,3.611-9.036,6.873-13.928,9.698c-36.449,21.043-82.549,16.927-114.711-10.242l1.107-0.639
	c26.66,19.352,62.3,21.226,90.798,4.771c11.603-6.698,21.523-16.218,28.686-27.529c6.652-10.504,10.946-22.597,12.42-34.975
	c1.459-12.25,0.189-24.632-3.673-36.222l5.348-3.088c5.047,2.919,10.802,4.482,16.692,4.482c5.89,0,11.646-1.563,16.691-4.477
	l5.348,3.088c-3.862,11.59-5.132,23.973-3.673,36.222c1.474,12.377,5.769,24.47,12.42,34.976
	c7.165,11.311,17.084,20.831,28.685,27.529c28.954,16.717,64.974,14.559,91.766-5.496l1.038,0.599
	c-18.189,15.738-41.481,24.407-65.584,24.409c-17.544,0.001-34.843-4.632-50.027-13.4c-11.758-6.79-21.85-15.721-29.995-26.546
	c-2.77-3.684-8.004-4.423-11.689-1.652c-3.684,2.773-4.423,8.005-1.652,11.689c9.503,12.63,21.275,23.049,34.99,30.967
	c17.72,10.231,37.906,15.638,58.376,15.637c28.116-0.002,55.286-10.116,76.505-28.477c4.079-3.528,6.209-8.841,5.697-14.211
	c-0.512-5.369-3.605-10.182-8.277-12.877l-1.038-0.599c-5.79-3.342-12.994-2.912-18.347,1.094
	c-21.438,16.047-50.255,17.774-73.414,4.404c-9.407-5.431-17.122-12.835-22.929-22.003c-5.327-8.412-8.766-18.1-9.948-28.018
	c-1.407-11.807,0.352-23.759,5.086-34.563c1.707-3.896,0.211-8.452-3.472-10.579l-16.116-9.305c-3.063-1.77-6.912-1.414-9.601,0.886
	c-3.02,2.584-6.871,4.007-10.841,4.007c-3.971,0-7.821-1.422-10.841-4.007c-2.689-2.301-6.536-2.656-9.601-0.886l-6.135,3.542
	c6.039-3.488,10.133-9.698,10.95-16.609c0.672-5.67,1.125-7.237,1.175-7.397c0.452-1.461,2.224-3.237,5.266-5.278
	c5.752-3.86,9.186-10.288,9.186-17.194c0,6.906,3.434,13.334,9.187,17.195c3.041,2.04,4.812,3.814,5.264,5.276
	c0.05,0.161,0.505,1.733,1.175,7.397c0.819,6.915,4.915,13.125,10.957,16.612c8.776,5.068,19.87,3.544,26.981-3.698
	c6.072-6.182,13.236-11.067,21.296-14.52c9.179-3.933,19.293-5.798,29.231-5.387c10.839,0.445,21.104,3.425,30.513,8.858
	c22.816,13.173,35.772,38.636,33.005,64.868c-0.687,6.517,2.557,12.857,8.262,16.15l0.914,0.528
	c2.671,1.543,5.668,2.353,8.612,2.353c0.666,0,1.328-0.041,1.983-0.125c7.304-0.932,13.082-6.406,14.377-13.621
	C466.448,278.406,443.714,229.427,401.188,204.875z"/>
<path d="M308.205,163.709c1.955-4.176,0.154-9.145-4.023-11.099c-15.169-7.097-31.379-10.696-48.183-10.696
	c-17.161,0-33.699,3.757-49.151,11.167c-4.157,1.993-5.911,6.98-3.918,11.136c1.436,2.993,4.422,4.74,7.533,4.74
	c1.21,0,2.439-0.265,3.603-0.823c13.182-6.321,27.29-9.525,41.932-9.525c14.34,0,28.171,3.069,41.107,9.122
	C301.286,169.686,306.252,167.884,308.205,163.709z"/>
<path d="M236.66,177.668c-4.476,1.107-7.206,5.633-6.098,10.109c0.941,3.802,4.349,6.344,8.096,6.344
	c0.664,0,1.339-0.08,2.012-0.247c9.855-2.439,20.182-2.49,30.082-0.139c4.493,1.07,8.986-1.707,10.051-6.192
	c1.065-4.486-1.706-8.986-6.192-10.051C262.134,174.529,249.087,174.594,236.66,177.668z"/>
<path d="M204.252,314.822c2.103,0,4.208-0.79,5.831-2.375c3.298-3.221,3.361-8.506,0.14-11.805
	c-7.634-7.818-13.168-17.473-16.001-27.918c-1.207-4.45-5.788-7.076-10.242-5.87c-4.45,1.207-7.078,5.792-5.87,10.242
	c3.577,13.185,10.551,25.362,20.169,35.211C199.915,313.982,202.082,314.822,204.252,314.822z"/>
<path d="M149.941,255.652c-4.597,0.345-8.045,4.351-7.7,8.949c2.567,34.238,20.286,65.215,48.617,84.988
	c1.456,1.015,3.121,1.503,4.771,1.503c2.636,0,5.229-1.245,6.853-3.571c2.639-3.78,1.713-8.984-2.068-11.624
	c-24.199-16.888-39.333-43.331-41.523-72.545C158.545,258.755,154.527,255.311,149.941,255.652z"/>
<path d="M333.89,277.095c1.208-4.45-1.421-9.036-5.87-10.242c-4.451-1.208-9.035,1.421-10.242,5.87
	c-2.834,10.445-8.367,20.099-16.001,27.92c-3.221,3.299-3.158,8.584,0.141,11.805c1.624,1.585,3.729,2.374,5.83,2.374
	c2.17,0,4.339-0.84,5.974-2.517C323.339,302.455,330.315,290.28,333.89,277.095z"/>
<path d="M316.373,351.091c1.648,0,3.316-0.487,4.769-1.503c28.33-19.772,46.05-50.749,48.618-84.988
	c0.345-4.597-3.103-8.604-7.701-8.949c-4.586-0.347-8.604,3.102-8.949,7.7c-2.19,29.215-17.323,55.655-41.522,72.545
	c-3.781,2.639-4.707,7.842-2.068,11.624C311.143,349.845,313.736,351.091,316.373,351.091z"/>
<g>
</g>
<g>
</g>
<g>
</g>
<g>
</g>
<g>
</g>
<g>
</g>
<g>
</g>
<g>
</g>
<g>
</g>
<g>
</g>
<g>
</g>
<g>
</g>
<g>
</g>
<g>
</g>
<g>
</g>
</svg>
