<?xml version="1.0" encoding="iso-8859-1"?>
<!-- Generator: Adobe Illustrator 19.0.0, SVG Export Plug-In . SVG Version: 6.00 Build 0)  -->
<svg version="1.1" id="Capa_1" xmlns="http://www.w3.org/2000/svg" xmlns:xlink="http://www.w3.org/1999/xlink" x="0px" y="0px"
	 viewBox="0 0 512 512" style="enable-background:new 0 0 512 512;" xml:space="preserve">
<path style="fill:#D7DCDD;" d="M439.263,469.278H72.738V183.267C72.738,82.054,154.788,0.005,256,0.005l0,0
	c101.213,0,183.262,82.05,183.262,183.262v286.011H439.263z"/>
<path style="fill:#BDBDBD;" d="M439.26,183.27v286.008h-47.234V183.27c0-50.611-20.515-96.43-53.677-129.593
	c-27.918-27.917-64.807-46.872-105.97-52.17C240.111,0.516,247.999,0,256,0c50.611,0,96.42,20.515,129.582,53.677
	S439.26,132.659,439.26,183.27z"/>
<path style="fill:#686D6D;" d="M468.507,512H43.493c-2.851,0-5.162-2.311-5.162-5.162V474.17c0-2.851,2.311-5.162,5.162-5.162
	h425.013c2.851,0,5.162,2.311,5.162,5.162v32.668C473.669,509.689,471.358,512,468.507,512z"/>
<path style="fill:#555656;" d="M468.507,512h-76.481v-42.722h76.481c2.851,0,5.162,2.311,5.162,5.162v32.398
	C473.669,509.689,471.358,512,468.507,512z"/>
<g>
	<path style="fill:#686D6D;" d="M301.154,116.126h-26.571V76.404c0-2.851-2.311-5.162-5.162-5.162H242.58
		c-2.851,0-5.162,2.311-5.162,5.162v39.721h-26.571c-2.851,0-5.162,2.311-5.162,5.162v26.842c0,2.851,2.311,5.162,5.162,5.162
		h26.571v70.305c0,2.851,2.311,5.162,5.162,5.162h26.842c2.851,0,5.162-2.311,5.162-5.162v-70.305h26.571
		c2.851,0,5.162-2.311,5.162-5.162v-26.842C306.317,118.437,304.005,116.126,301.154,116.126z"/>
	<path style="fill:#686D6D;" d="M369.822,298.243H142.179c-4.277,0-7.743-3.466-7.743-7.743c0-4.277,3.466-7.743,7.743-7.743
		h227.642c4.277,0,7.743,3.466,7.743,7.743C377.565,294.777,374.099,298.243,369.822,298.243z"/>
	<path style="fill:#686D6D;" d="M369.822,343.153H142.179c-4.277,0-7.743-3.466-7.743-7.743c0-4.277,3.466-7.743,7.743-7.743
		h227.642c4.277,0,7.743,3.466,7.743,7.743C377.565,339.687,374.099,343.153,369.822,343.153z"/>
	<path style="fill:#686D6D;" d="M369.822,388.062H142.179c-4.277,0-7.743-3.466-7.743-7.743c0-4.277,3.466-7.743,7.743-7.743
		h227.642c4.277,0,7.743,3.466,7.743,7.743C377.565,384.596,374.099,388.062,369.822,388.062z"/>
</g>
<g>
</g>
<g>
</g>
<g>
</g>
<g>
</g>
<g>
</g>
<g>
</g>
<g>
</g>
<g>
</g>
<g>
</g>
<g>
</g>
<g>
</g>
<g>
</g>
<g>
</g>
<g>
</g>
<g>
</g>
</svg>
